<?xml version="1.0" encoding="utf-8"?>
<!-- Generator: Adobe Illustrator 24.3.0, SVG Export Plug-In . SVG Version: 6.00 Build 0)  -->
<svg version="1.1" id="Lager_1" xmlns="http://www.w3.org/2000/svg" xmlns:xlink="http://www.w3.org/1999/xlink" x="0px" y="0px"
	 viewBox="0 0 1920 700" style="enable-background:new 0 0 1920 700;" xml:space="preserve">
<path d="M1920,9v691H0V0h1.2C62.1,12.8,335.4,66.2,644,55.7c221.1-7.5,234-40.2,492-42.7c133.4-1.3,119.2,7.5,345.3,9.3
	C1704.8,24.1,1828.7,25.1,1920,9z"/>
<path d="M1481.3,22.3c-226.1-1.8-211.9-10.6-345.3-9.3c-258,2.5-270.9,35.1-492,42.7C335.4,66.2,62.1,12.8,1.2,0H0v602.6V700v488.8
	v113.8v586.2h1920v-586.2v-104.8V700v-88.5V9C1828.7,25.1,1704.8,24.1,1481.3,22.3z"/>
</svg>
